<svg width="116" height="35" viewBox="0 0 116 35" fill="none" xmlns="http://www.w3.org/2000/svg">
<g filter="url(#filter0_d_0_170)">
<path d="M4.53 26V3.73H11.364C16.3053 3.73 18.776 5.65667 18.776 9.51C18.776 10.7567 18.4587 11.8333 17.824 12.74C17.1893 13.6467 16.328 14.2133 15.24 14.44C16.5093 14.6213 17.4953 15.1767 18.198 16.106C18.9233 17.0127 19.2973 18.2027 19.32 19.676C19.32 23.892 16.566 26 11.058 26H4.53ZM11.568 22.94C13.064 22.94 14.1293 22.6113 14.764 21.954C15.3987 21.2967 15.716 20.424 15.716 19.336C15.716 18.2253 15.3647 17.4207 14.662 16.922C13.982 16.4233 12.894 16.174 11.398 16.174H8.066V22.94H11.568ZM15.308 9.782C15.308 7.78733 14.0727 6.79 11.602 6.79H8.066V13.114H11.33C13.982 13.114 15.308 12.0033 15.308 9.782ZM21.666 17.942C21.666 15.1993 22.278 13.1253 23.502 11.72C24.726 10.292 26.426 9.578 28.602 9.578C30.778 9.578 32.4553 10.224 33.634 11.516C34.8353 12.7853 35.4587 14.6553 35.504 17.126L35.368 19.642H25.44C25.644 22.09 26.868 23.314 29.112 23.314C30.676 23.314 32.3307 23.0307 34.076 22.464L34.79 25.422C34.0647 25.6713 33.124 25.8867 31.968 26.068C30.812 26.272 29.86 26.374 29.112 26.374C24.148 26.374 21.666 23.5633 21.666 17.942ZM28.738 12.74C27.6727 12.74 26.868 13.0573 26.324 13.692C25.8027 14.304 25.508 15.3353 25.44 16.786H31.73C31.73 14.0887 30.7327 12.74 28.738 12.74ZM37.782 25.252L38.53 22.158C40.6833 22.838 42.3947 23.178 43.664 23.178C44.9333 23.178 45.7947 23.0533 46.248 22.804C46.7013 22.5773 46.928 22.1693 46.928 21.58C46.928 20.9907 46.724 20.5713 46.316 20.322C45.908 20.0727 45.1373 19.812 44.004 19.54C41.76 18.996 40.196 18.3953 39.312 17.738C38.428 17.058 37.986 15.9587 37.986 14.44C37.986 11.1987 40.0713 9.578 44.242 9.578C46.0327 9.578 48.1067 9.87267 50.464 10.462L49.818 13.692C47.574 13.0573 45.84 12.74 44.616 12.74C43.392 12.74 42.5647 12.8533 42.134 13.08C41.726 13.284 41.522 13.6467 41.522 14.168C41.522 14.6893 41.726 15.0747 42.134 15.324C42.5647 15.5507 43.6527 15.902 45.398 16.378C47.1433 16.854 48.424 17.4093 49.24 18.044C50.056 18.656 50.464 19.71 50.464 21.206C50.464 24.6287 48.356 26.34 44.14 26.34C42.168 26.34 40.0487 25.9773 37.782 25.252ZM56.584 9.85L56.652 10.836C58.488 9.99733 59.9273 9.578 60.97 9.578C62.806 9.578 64.1547 10.122 65.016 11.21C65.9 12.2753 66.342 13.9527 66.342 16.242V26H62.84V16.344C62.84 15.256 62.6473 14.406 62.262 13.794C61.8767 13.182 61.276 12.876 60.46 12.876C59.644 12.876 58.386 13.2727 56.686 14.066V26H53.184V9.85H56.584ZM68.994 26V22.872H74.06V12.978H69.266V9.85H77.562V22.872H82.356V26H68.994ZM75.624 7.504C74.944 7.504 74.4 7.3 73.992 6.892C73.6067 6.46133 73.414 5.906 73.414 5.226C73.414 4.546 73.618 4.002 74.026 3.594C74.434 3.186 74.978 2.982 75.658 2.982C76.3607 2.982 76.8933 3.186 77.256 3.594C77.6413 3.97933 77.834 4.52333 77.834 5.226C77.834 5.92867 77.6413 6.484 77.256 6.892C76.8707 7.3 76.3267 7.504 75.624 7.504ZM85.178 26V3.39H88.68V16.344L90.924 16.106C92.1933 14.474 93.304 12.706 94.256 10.802L94.732 9.85H98.54C97.112 12.8647 95.5253 15.3807 93.78 17.398C95.2307 19.4607 96.6927 21.8973 98.166 24.708L98.846 26H94.868C93.7573 23.5973 92.488 21.2967 91.06 19.098L88.68 19.336V26H85.178ZM104.15 26V21.07H109.08V26H104.15Z" fill="#1A1A1A"/>
</g>
<defs>
<filter id="filter0_d_0_170" x="0.530029" y="2.98206" width="112.55" height="31.392" filterUnits="userSpaceOnUse" color-interpolation-filters="sRGB">
<feFlood flood-opacity="0" result="BackgroundImageFix"/>
<feColorMatrix in="SourceAlpha" type="matrix" values="0 0 0 0 0 0 0 0 0 0 0 0 0 0 0 0 0 0 127 0" result="hardAlpha"/>
<feOffset dy="4"/>
<feGaussianBlur stdDeviation="2"/>
<feComposite in2="hardAlpha" operator="out"/>
<feColorMatrix type="matrix" values="0 0 0 0 0 0 0 0 0 0 0 0 0 0 0 0 0 0 0.25 0"/>
<feBlend mode="normal" in2="BackgroundImageFix" result="effect1_dropShadow_0_170"/>
<feBlend mode="normal" in="SourceGraphic" in2="effect1_dropShadow_0_170" result="shape"/>
</filter>
</defs>
</svg>
