<svg width="259" height="24" viewBox="0 0 259 24" fill="none" xmlns="http://www.w3.org/2000/svg">
<g filter="url(#filter0_d_0_172)">
<path opacity="0.94" d="M108.278 15V3.36364H112.426C113.331 3.36364 114.081 3.52841 114.676 3.85795C115.271 4.1875 115.716 4.63826 116.011 5.21023C116.307 5.77841 116.455 6.41856 116.455 7.13068C116.455 7.84659 116.305 8.49053 116.006 9.0625C115.71 9.63068 115.263 10.0814 114.665 10.4148C114.07 10.7443 113.322 10.9091 112.42 10.9091H109.568V9.42045H112.261C112.833 9.42045 113.297 9.32197 113.653 9.125C114.009 8.92424 114.271 8.65152 114.438 8.30682C114.604 7.96212 114.688 7.57008 114.688 7.13068C114.688 6.69129 114.604 6.30114 114.438 5.96023C114.271 5.61932 114.008 5.35227 113.648 5.15909C113.292 4.96591 112.822 4.86932 112.239 4.86932H110.034V15H108.278ZM120.075 3.36364V15H118.376V3.36364H120.075ZM124.901 15.1932C124.348 15.1932 123.848 15.0909 123.401 14.8864C122.954 14.678 122.599 14.3769 122.338 13.983C122.08 13.589 121.952 13.1061 121.952 12.5341C121.952 12.0417 122.046 11.6364 122.236 11.3182C122.425 11 122.681 10.7481 123.003 10.5625C123.325 10.3769 123.685 10.2367 124.082 10.142C124.48 10.0473 124.885 9.97538 125.298 9.92614C125.821 9.86553 126.245 9.81629 126.571 9.77841C126.897 9.73674 127.134 9.67045 127.281 9.57955C127.429 9.48864 127.503 9.34091 127.503 9.13636V9.09659C127.503 8.60038 127.363 8.21591 127.082 7.94318C126.806 7.67045 126.393 7.53409 125.844 7.53409C125.272 7.53409 124.821 7.66098 124.491 7.91477C124.166 8.16477 123.94 8.44318 123.815 8.75L122.219 8.38636C122.408 7.85606 122.685 7.42803 123.048 7.10227C123.416 6.77273 123.838 6.53409 124.315 6.38636C124.793 6.23485 125.295 6.15909 125.821 6.15909C126.17 6.15909 126.539 6.20076 126.929 6.28409C127.323 6.36364 127.69 6.51136 128.031 6.72727C128.376 6.94318 128.658 7.25189 128.878 7.65341C129.098 8.05114 129.207 8.56818 129.207 9.20455V15H127.548V13.8068H127.48C127.37 14.0265 127.205 14.2424 126.986 14.4545C126.766 14.6667 126.484 14.8428 126.139 14.983C125.795 15.1231 125.382 15.1932 124.901 15.1932ZM125.27 13.8295C125.74 13.8295 126.141 13.7367 126.474 13.5511C126.812 13.3655 127.067 13.1231 127.241 12.8239C127.42 12.5208 127.509 12.197 127.509 11.8523V10.7273C127.448 10.7879 127.33 10.8447 127.156 10.8977C126.986 10.947 126.791 10.9905 126.571 11.0284C126.351 11.0625 126.137 11.0947 125.929 11.125C125.721 11.1515 125.546 11.1742 125.406 11.1932C125.077 11.2348 124.776 11.3049 124.503 11.4034C124.234 11.5019 124.018 11.6439 123.855 11.8295C123.696 12.0114 123.616 12.2538 123.616 12.5568C123.616 12.9773 123.772 13.2955 124.082 13.5114C124.393 13.7235 124.789 13.8295 125.27 13.8295ZM133.169 9.81818V15H131.47V6.27273H133.101V7.69318H133.209C133.41 7.23106 133.724 6.85985 134.152 6.57955C134.584 6.29924 135.127 6.15909 135.783 6.15909C136.377 6.15909 136.898 6.28409 137.345 6.53409C137.792 6.7803 138.139 7.14773 138.385 7.63636C138.631 8.125 138.754 8.72917 138.754 9.44886V15H137.055V9.65341C137.055 9.02083 136.891 8.52652 136.561 8.17045C136.232 7.81061 135.779 7.63068 135.203 7.63068C134.809 7.63068 134.459 7.71591 134.152 7.88636C133.849 8.05682 133.608 8.30682 133.43 8.63636C133.256 8.96212 133.169 9.35606 133.169 9.81818ZM147.572 8.40341L146.033 8.67614C145.968 8.47917 145.866 8.29167 145.726 8.11364C145.589 7.93561 145.404 7.78977 145.169 7.67614C144.934 7.5625 144.641 7.50568 144.288 7.50568C143.807 7.50568 143.406 7.61364 143.084 7.82955C142.762 8.04167 142.601 8.31629 142.601 8.65341C142.601 8.94508 142.709 9.17992 142.925 9.35795C143.141 9.53598 143.489 9.68182 143.97 9.79545L145.357 10.1136C146.16 10.2992 146.758 10.5852 147.152 10.9716C147.546 11.358 147.743 11.8598 147.743 12.4773C147.743 13 147.591 13.4659 147.288 13.875C146.989 14.2803 146.571 14.5985 146.033 14.8295C145.499 15.0606 144.879 15.1761 144.175 15.1761C143.197 15.1761 142.4 14.9678 141.783 14.5511C141.165 14.1307 140.786 13.5341 140.646 12.7614L142.288 12.5114C142.391 12.9394 142.601 13.2633 142.919 13.483C143.237 13.6989 143.652 13.8068 144.163 13.8068C144.72 13.8068 145.165 13.6913 145.499 13.4602C145.832 13.2254 145.999 12.9394 145.999 12.6023C145.999 12.3295 145.896 12.1004 145.692 11.9148C145.491 11.7292 145.182 11.589 144.766 11.4943L143.288 11.1705C142.474 10.9848 141.872 10.6894 141.482 10.2841C141.095 9.87879 140.902 9.36553 140.902 8.74432C140.902 8.22917 141.046 7.77841 141.334 7.39205C141.622 7.00568 142.019 6.70455 142.527 6.48864C143.035 6.26894 143.616 6.15909 144.271 6.15909C145.214 6.15909 145.957 6.36364 146.499 6.77273C147.04 7.17803 147.398 7.72159 147.572 8.40341Z" fill="#333333"/>
<path opacity="0.94" d="M185.278 15V3.36364H189.426C190.328 3.36364 191.076 3.51894 191.67 3.82955C192.269 4.14015 192.716 4.57008 193.011 5.11932C193.307 5.66477 193.455 6.29545 193.455 7.01136C193.455 7.72348 193.305 8.35038 193.006 8.89205C192.71 9.42992 192.263 9.84848 191.665 10.1477C191.07 10.447 190.322 10.5966 189.42 10.5966H186.278V9.08523H189.261C189.83 9.08523 190.292 9.00379 190.648 8.84091C191.008 8.67803 191.271 8.44129 191.438 8.13068C191.604 7.82008 191.688 7.44697 191.688 7.01136C191.688 6.57197 191.602 6.19129 191.432 5.86932C191.265 5.54735 191.002 5.30114 190.642 5.13068C190.286 4.95644 189.818 4.86932 189.239 4.86932H187.034V15H185.278ZM191.023 9.75L193.898 15H191.898L189.08 9.75H191.023ZM199.107 15.1761C198.247 15.1761 197.506 14.9924 196.885 14.625C196.268 14.2538 195.79 13.733 195.453 13.0625C195.12 12.3883 194.953 11.5985 194.953 10.6932C194.953 9.79924 195.12 9.01136 195.453 8.32955C195.79 7.64773 196.26 7.11553 196.862 6.73295C197.468 6.35038 198.177 6.15909 198.987 6.15909C199.48 6.15909 199.957 6.24053 200.419 6.40341C200.881 6.56629 201.296 6.82197 201.663 7.17045C202.031 7.51894 202.321 7.97159 202.533 8.52841C202.745 9.08144 202.851 9.75379 202.851 10.5455V11.1477H195.913V9.875H201.186C201.186 9.42803 201.095 9.0322 200.913 8.6875C200.732 8.33902 200.476 8.06439 200.146 7.86364C199.821 7.66288 199.438 7.5625 198.999 7.5625C198.521 7.5625 198.105 7.67992 197.749 7.91477C197.396 8.14583 197.124 8.44886 196.93 8.82386C196.741 9.19508 196.646 9.59848 196.646 10.0341V11.0284C196.646 11.6117 196.749 12.108 196.953 12.517C197.161 12.9261 197.451 13.2386 197.822 13.4545C198.194 13.6667 198.627 13.7727 199.124 13.7727C199.446 13.7727 199.739 13.7273 200.004 13.6364C200.269 13.5417 200.499 13.4015 200.692 13.2159C200.885 13.0303 201.033 12.8011 201.135 12.5284L202.743 12.8182C202.614 13.2917 202.383 13.7064 202.05 14.0625C201.72 14.4148 201.305 14.6894 200.805 14.8864C200.309 15.0795 199.743 15.1761 199.107 15.1761ZM211.276 8.40341L209.736 8.67614C209.671 8.47917 209.569 8.29167 209.429 8.11364C209.293 7.93561 209.107 7.78977 208.872 7.67614C208.637 7.5625 208.344 7.50568 207.991 7.50568C207.51 7.50568 207.109 7.61364 206.787 7.82955C206.465 8.04167 206.304 8.31629 206.304 8.65341C206.304 8.94508 206.412 9.17992 206.628 9.35795C206.844 9.53598 207.192 9.68182 207.673 9.79545L209.06 10.1136C209.863 10.2992 210.461 10.5852 210.855 10.9716C211.249 11.358 211.446 11.8598 211.446 12.4773C211.446 13 211.295 13.4659 210.991 13.875C210.692 14.2803 210.274 14.5985 209.736 14.8295C209.202 15.0606 208.582 15.1761 207.878 15.1761C206.901 15.1761 206.103 14.9678 205.486 14.5511C204.868 14.1307 204.49 13.5341 204.349 12.7614L205.991 12.5114C206.094 12.9394 206.304 13.2633 206.622 13.483C206.94 13.6989 207.355 13.8068 207.866 13.8068C208.423 13.8068 208.868 13.6913 209.202 13.4602C209.535 13.2254 209.702 12.9394 209.702 12.6023C209.702 12.3295 209.599 12.1004 209.395 11.9148C209.194 11.7292 208.885 11.589 208.469 11.4943L206.991 11.1705C206.177 10.9848 205.575 10.6894 205.185 10.2841C204.798 9.87879 204.605 9.36553 204.605 8.74432C204.605 8.22917 204.749 7.77841 205.037 7.39205C205.325 7.00568 205.723 6.70455 206.23 6.48864C206.738 6.26894 207.319 6.15909 207.974 6.15909C208.918 6.15909 209.66 6.36364 210.202 6.77273C210.743 7.17803 211.101 7.72159 211.276 8.40341ZM216.99 15.1761C216.172 15.1761 215.458 14.9886 214.848 14.6136C214.238 14.2386 213.765 13.714 213.428 13.0398C213.09 12.3655 212.922 11.5777 212.922 10.6761C212.922 9.77083 213.09 8.97917 213.428 8.30114C213.765 7.62311 214.238 7.09659 214.848 6.72159C215.458 6.34659 216.172 6.15909 216.99 6.15909C217.808 6.15909 218.522 6.34659 219.132 6.72159C219.742 7.09659 220.215 7.62311 220.553 8.30114C220.89 8.97917 221.058 9.77083 221.058 10.6761C221.058 11.5777 220.89 12.3655 220.553 13.0398C220.215 13.714 219.742 14.2386 219.132 14.6136C218.522 14.9886 217.808 15.1761 216.99 15.1761ZM216.996 13.75C217.526 13.75 217.965 13.6098 218.314 13.3295C218.662 13.0492 218.92 12.6761 219.087 12.2102C219.257 11.7443 219.342 11.2311 219.342 10.6705C219.342 10.1136 219.257 9.60227 219.087 9.13636C218.92 8.66667 218.662 8.28977 218.314 8.00568C217.965 7.72159 217.526 7.57955 216.996 7.57955C216.462 7.57955 216.018 7.72159 215.666 8.00568C215.318 8.28977 215.058 8.66667 214.888 9.13636C214.721 9.60227 214.638 10.1136 214.638 10.6705C214.638 11.2311 214.721 11.7443 214.888 12.2102C215.058 12.6761 215.318 13.0492 215.666 13.3295C216.018 13.6098 216.462 13.75 216.996 13.75ZM228.483 11.3807V6.27273H230.188V15H228.517V13.4886H228.426C228.225 13.9545 227.903 14.3428 227.46 14.6534C227.021 14.9602 226.473 15.1136 225.818 15.1136C225.258 15.1136 224.761 14.9905 224.33 14.7443C223.902 14.4943 223.564 14.125 223.318 13.6364C223.076 13.1477 222.955 12.5436 222.955 11.8239V6.27273H224.653V11.6193C224.653 12.214 224.818 12.6875 225.148 13.0398C225.477 13.392 225.905 13.5682 226.432 13.5682C226.75 13.5682 227.066 13.4886 227.381 13.3295C227.699 13.1705 227.962 12.9299 228.17 12.608C228.383 12.286 228.487 11.8769 228.483 11.3807ZM232.47 15V6.27273H234.112V7.65909H234.203C234.362 7.18939 234.643 6.82008 235.044 6.55114C235.449 6.27841 235.908 6.14205 236.419 6.14205C236.525 6.14205 236.65 6.14583 236.794 6.15341C236.942 6.16098 237.057 6.17045 237.141 6.18182V7.80682C237.072 7.78788 236.951 7.76705 236.777 7.74432C236.603 7.7178 236.429 7.70455 236.254 7.70455C235.853 7.70455 235.495 7.78977 235.18 7.96023C234.87 8.12689 234.624 8.35985 234.442 8.65909C234.26 8.95455 234.169 9.29167 234.169 9.67045V15H232.47ZM241.974 15.1761C241.13 15.1761 240.402 14.9848 239.793 14.6023C239.187 14.2159 238.721 13.6837 238.395 13.0057C238.069 12.3277 237.906 11.5511 237.906 10.6761C237.906 9.78977 238.073 9.00758 238.406 8.32955C238.74 7.64773 239.209 7.11553 239.815 6.73295C240.421 6.35038 241.135 6.15909 241.957 6.15909C242.62 6.15909 243.211 6.2822 243.73 6.52841C244.249 6.77083 244.668 7.11174 244.986 7.55114C245.308 7.99053 245.499 8.50379 245.56 9.09091H243.906C243.815 8.68182 243.607 8.32955 243.281 8.03409C242.959 7.73864 242.527 7.59091 241.986 7.59091C241.512 7.59091 241.098 7.71591 240.741 7.96591C240.389 8.21212 240.115 8.56439 239.918 9.02273C239.721 9.47727 239.622 10.0152 239.622 10.6364C239.622 11.2727 239.719 11.822 239.912 12.2841C240.105 12.7462 240.378 13.1042 240.73 13.358C241.086 13.6117 241.505 13.7386 241.986 13.7386C242.308 13.7386 242.599 13.6799 242.861 13.5625C243.126 13.4413 243.348 13.2689 243.526 13.0455C243.707 12.822 243.834 12.553 243.906 12.2386H245.56C245.499 12.803 245.315 13.3068 245.009 13.75C244.702 14.1932 244.291 14.5417 243.776 14.7955C243.264 15.0492 242.664 15.1761 241.974 15.1761ZM251.138 15.1761C250.278 15.1761 249.537 14.9924 248.916 14.625C248.299 14.2538 247.821 13.733 247.484 13.0625C247.151 12.3883 246.984 11.5985 246.984 10.6932C246.984 9.79924 247.151 9.01136 247.484 8.32955C247.821 7.64773 248.291 7.11553 248.893 6.73295C249.5 6.35038 250.208 6.15909 251.018 6.15909C251.511 6.15909 251.988 6.24053 252.45 6.40341C252.912 6.56629 253.327 6.82197 253.695 7.17045C254.062 7.51894 254.352 7.97159 254.564 8.52841C254.776 9.08144 254.882 9.75379 254.882 10.5455V11.1477H247.945V9.875H253.217C253.217 9.42803 253.126 9.0322 252.945 8.6875C252.763 8.33902 252.507 8.06439 252.178 7.86364C251.852 7.66288 251.469 7.5625 251.03 7.5625C250.553 7.5625 250.136 7.67992 249.78 7.91477C249.428 8.14583 249.155 8.44886 248.962 8.82386C248.772 9.19508 248.678 9.59848 248.678 10.0341V11.0284C248.678 11.6117 248.78 12.108 248.984 12.517C249.193 12.9261 249.482 13.2386 249.854 13.4545C250.225 13.6667 250.659 13.7727 251.155 13.7727C251.477 13.7727 251.77 13.7273 252.036 13.6364C252.301 13.5417 252.53 13.4015 252.723 13.2159C252.916 13.0303 253.064 12.8011 253.166 12.5284L254.774 12.8182C254.645 13.2917 254.414 13.7064 254.081 14.0625C253.751 14.4148 253.337 14.6894 252.837 14.8864C252.34 15.0795 251.774 15.1761 251.138 15.1761Z" fill="#333333"/>
<path opacity="0.94" d="M11.625 6.42045C11.5644 5.88258 11.3144 5.46591 10.875 5.17045C10.4356 4.87121 9.88258 4.72159 9.21591 4.72159C8.73864 4.72159 8.32576 4.79735 7.97727 4.94886C7.62879 5.09659 7.35795 5.30114 7.16477 5.5625C6.97538 5.82008 6.88068 6.11364 6.88068 6.44318C6.88068 6.7197 6.94508 6.95833 7.07386 7.15909C7.20644 7.35985 7.37879 7.52841 7.59091 7.66477C7.80682 7.79735 8.03788 7.90909 8.28409 8C8.5303 8.08712 8.76705 8.15909 8.99432 8.21591L10.1307 8.51136C10.5019 8.60227 10.8826 8.72538 11.2727 8.88068C11.6629 9.03598 12.0246 9.24053 12.358 9.49432C12.6913 9.74811 12.9602 10.0625 13.1648 10.4375C13.3731 10.8125 13.4773 11.2614 13.4773 11.7841C13.4773 12.4432 13.3068 13.0284 12.9659 13.5398C12.6288 14.0511 12.1383 14.4545 11.4943 14.75C10.8542 15.0455 10.0795 15.1932 9.17045 15.1932C8.29924 15.1932 7.54545 15.0549 6.90909 14.7784C6.27273 14.5019 5.77462 14.1098 5.41477 13.6023C5.05492 13.0909 4.85606 12.4848 4.81818 11.7841H6.57955C6.61364 12.2045 6.75 12.5549 6.98864 12.8352C7.23106 13.1117 7.53977 13.3182 7.91477 13.4545C8.29356 13.5871 8.70833 13.6534 9.15909 13.6534C9.6553 13.6534 10.0966 13.5758 10.483 13.4205C10.8731 13.2614 11.1799 13.0417 11.4034 12.7614C11.6269 12.4773 11.7386 12.1458 11.7386 11.767C11.7386 11.4223 11.6402 11.1402 11.4432 10.9205C11.25 10.7008 10.9867 10.5189 10.6534 10.375C10.3239 10.2311 9.95076 10.1042 9.53409 9.99432L8.15909 9.61932C7.22727 9.36553 6.48864 8.99242 5.94318 8.5C5.40152 8.00758 5.13068 7.35606 5.13068 6.54545C5.13068 5.875 5.3125 5.28977 5.67614 4.78977C6.03977 4.28977 6.5322 3.90151 7.15341 3.625C7.77462 3.3447 8.47538 3.20455 9.25568 3.20455C10.0436 3.20455 10.7386 3.3428 11.3409 3.61932C11.947 3.89583 12.4242 4.27652 12.7727 4.76136C13.1212 5.24242 13.303 5.79545 13.3182 6.42045H11.625ZM19.1151 15.1761C18.2969 15.1761 17.5829 14.9886 16.973 14.6136C16.3632 14.2386 15.8897 13.714 15.5526 13.0398C15.2154 12.3655 15.0469 11.5777 15.0469 10.6761C15.0469 9.77083 15.2154 8.97917 15.5526 8.30114C15.8897 7.62311 16.3632 7.09659 16.973 6.72159C17.5829 6.34659 18.2969 6.15909 19.1151 6.15909C19.9332 6.15909 20.6473 6.34659 21.2571 6.72159C21.867 7.09659 22.3404 7.62311 22.6776 8.30114C23.0147 8.97917 23.1832 9.77083 23.1832 10.6761C23.1832 11.5777 23.0147 12.3655 22.6776 13.0398C22.3404 13.714 21.867 14.2386 21.2571 14.6136C20.6473 14.9886 19.9332 15.1761 19.1151 15.1761ZM19.1207 13.75C19.651 13.75 20.0904 13.6098 20.4389 13.3295C20.7874 13.0492 21.045 12.6761 21.2116 12.2102C21.3821 11.7443 21.4673 11.2311 21.4673 10.6705C21.4673 10.1136 21.3821 9.60227 21.2116 9.13636C21.045 8.66667 20.7874 8.28977 20.4389 8.00568C20.0904 7.72159 19.651 7.57955 19.1207 7.57955C18.5866 7.57955 18.1435 7.72159 17.7912 8.00568C17.4427 8.28977 17.1832 8.66667 17.0128 9.13636C16.8461 9.60227 16.7628 10.1136 16.7628 10.6705C16.7628 11.2311 16.8461 11.7443 17.0128 12.2102C17.1832 12.6761 17.4427 13.0492 17.7912 13.3295C18.1435 13.6098 18.5866 13.75 19.1207 13.75ZM26.7784 3.36364V15H25.0795V3.36364H26.7784ZM34.5923 11.3807V6.27273H36.2969V15H34.6264V13.4886H34.5355C34.3348 13.9545 34.0128 14.3428 33.5696 14.6534C33.1302 14.9602 32.5829 15.1136 31.9276 15.1136C31.367 15.1136 30.8707 14.9905 30.4389 14.7443C30.0109 14.4943 29.6738 14.125 29.4276 13.6364C29.1851 13.1477 29.0639 12.5436 29.0639 11.8239V6.27273H30.7628V11.6193C30.7628 12.214 30.9276 12.6875 31.2571 13.0398C31.5866 13.392 32.0147 13.5682 32.5412 13.5682C32.8594 13.5682 33.1757 13.4886 33.4901 13.3295C33.8082 13.1705 34.0715 12.9299 34.2798 12.608C34.492 12.286 34.5961 11.8769 34.5923 11.3807ZM42.6534 6.27273V7.63636H37.8864V6.27273H42.6534ZM39.1648 4.18182H40.8636V12.4375C40.8636 12.767 40.9129 13.0152 41.0114 13.1818C41.1098 13.3447 41.2367 13.4564 41.392 13.517C41.5511 13.5739 41.7235 13.6023 41.9091 13.6023C42.0455 13.6023 42.1648 13.5928 42.267 13.5739C42.3693 13.5549 42.4489 13.5398 42.5057 13.5284L42.8125 14.9318C42.714 14.9697 42.5739 15.0076 42.392 15.0455C42.2102 15.0871 41.983 15.1098 41.7102 15.1136C41.2633 15.1212 40.8466 15.0417 40.4602 14.875C40.0739 14.7083 39.7614 14.4508 39.5227 14.1023C39.2841 13.7538 39.1648 13.3163 39.1648 12.7898V4.18182ZM44.5327 15V6.27273H46.2315V15H44.5327ZM45.3906 4.92614C45.0952 4.92614 44.8414 4.82765 44.6293 4.63068C44.4209 4.42992 44.3168 4.19129 44.3168 3.91477C44.3168 3.63447 44.4209 3.39583 44.6293 3.19886C44.8414 2.99811 45.0952 2.89773 45.3906 2.89773C45.6861 2.89773 45.938 2.99811 46.1463 3.19886C46.3584 3.39583 46.4645 3.63447 46.4645 3.91477C46.4645 4.19129 46.3584 4.42992 46.1463 4.63068C45.938 4.82765 45.6861 4.92614 45.3906 4.92614ZM52.1932 15.1761C51.375 15.1761 50.661 14.9886 50.0511 14.6136C49.4413 14.2386 48.9678 13.714 48.6307 13.0398C48.2936 12.3655 48.125 11.5777 48.125 10.6761C48.125 9.77083 48.2936 8.97917 48.6307 8.30114C48.9678 7.62311 49.4413 7.09659 50.0511 6.72159C50.661 6.34659 51.375 6.15909 52.1932 6.15909C53.0114 6.15909 53.7254 6.34659 54.3352 6.72159C54.9451 7.09659 55.4186 7.62311 55.7557 8.30114C56.0928 8.97917 56.2614 9.77083 56.2614 10.6761C56.2614 11.5777 56.0928 12.3655 55.7557 13.0398C55.4186 13.714 54.9451 14.2386 54.3352 14.6136C53.7254 14.9886 53.0114 15.1761 52.1932 15.1761ZM52.1989 13.75C52.7292 13.75 53.1686 13.6098 53.517 13.3295C53.8655 13.0492 54.1231 12.6761 54.2898 12.2102C54.4602 11.7443 54.5455 11.2311 54.5455 10.6705C54.5455 10.1136 54.4602 9.60227 54.2898 9.13636C54.1231 8.66667 53.8655 8.28977 53.517 8.00568C53.1686 7.72159 52.7292 7.57955 52.1989 7.57955C51.6648 7.57955 51.2216 7.72159 50.8693 8.00568C50.5208 8.28977 50.2614 8.66667 50.0909 9.13636C49.9242 9.60227 49.8409 10.1136 49.8409 10.6705C49.8409 11.2311 49.9242 11.7443 50.0909 12.2102C50.2614 12.6761 50.5208 13.0492 50.8693 13.3295C51.2216 13.6098 51.6648 13.75 52.1989 13.75ZM59.8565 9.81818V15H58.1577V6.27273H59.7884V7.69318H59.8963C60.0971 7.23106 60.4115 6.85985 60.8395 6.57955C61.2713 6.29924 61.8149 6.15909 62.4702 6.15909C63.0649 6.15909 63.5857 6.28409 64.0327 6.53409C64.4796 6.7803 64.8262 7.14773 65.0724 7.63636C65.3187 8.125 65.4418 8.72917 65.4418 9.44886V15H63.7429V9.65341C63.7429 9.02083 63.5781 8.52652 63.2486 8.17045C62.919 7.81061 62.4664 7.63068 61.8906 7.63068C61.4967 7.63068 61.1463 7.71591 60.8395 7.88636C60.5365 8.05682 60.2959 8.30682 60.1179 8.63636C59.9437 8.96212 59.8565 9.35606 59.8565 9.81818Z" fill="#333333"/>
</g>
<defs>
<filter id="filter0_d_0_172" x="0.818115" y="2.89771" width="258.064" height="20.2955" filterUnits="userSpaceOnUse" color-interpolation-filters="sRGB">
<feFlood flood-opacity="0" result="BackgroundImageFix"/>
<feColorMatrix in="SourceAlpha" type="matrix" values="0 0 0 0 0 0 0 0 0 0 0 0 0 0 0 0 0 0 127 0" result="hardAlpha"/>
<feOffset dy="4"/>
<feGaussianBlur stdDeviation="2"/>
<feComposite in2="hardAlpha" operator="out"/>
<feColorMatrix type="matrix" values="0 0 0 0 0 0 0 0 0 0 0 0 0 0 0 0 0 0 0.25 0"/>
<feBlend mode="normal" in2="BackgroundImageFix" result="effect1_dropShadow_0_172"/>
<feBlend mode="normal" in="SourceGraphic" in2="effect1_dropShadow_0_172" result="shape"/>
</filter>
</defs>
</svg>
